<svg width="50" height="50" viewBox="0 0 50 50" fill="none" xmlns="http://www.w3.org/2000/svg">
<path fill-rule="evenodd" clip-rule="evenodd" d="M45 25C45 36.0457 36.0457 45 25 45C13.9543 45 5 36.0457 5 25C5 13.9543 13.9543 5 25 5C36.0457 5 45 13.9543 45 25ZM50 25C50 38.807 38.807 50 25 50C11.1929 50 0 38.807 0 25C0 11.1929 11.1929 0 25 0C38.807 0 50 11.1929 50 25ZM21.9375 16.1397L19.2678 18.8093C18.2915 19.7856 16.7085 19.7856 15.7322 18.8093C14.7559 17.833 14.7559 16.2501 15.7322 15.2738L18.4018 12.6041C22.0385 8.96742 27.993 9.16568 31.3797 13.0363C34.6367 16.7584 34.23 22.4228 30.4748 25.6415L27.78 27.9515C27.6023 28.1038 27.5 28.326 27.5 28.56V32.0415C27.5 33.4222 26.3808 34.5415 25 34.5415C23.6192 34.5415 22.5 33.4222 22.5 32.0415V28.56C22.5 26.8665 23.24 25.2572 24.526 24.1553L27.221 21.8452C28.8643 20.4365 29.0422 17.9577 27.617 16.3288C26.1347 14.6349 23.529 14.5481 21.9375 16.1397ZM22.5 40C22.5 38.6193 23.6192 37.5 25 37.5H25.025C26.4058 37.5 27.525 38.6193 27.525 40C27.525 41.3807 26.4058 42.5 25.025 42.5H25C23.6192 42.5 22.5 41.3807 22.5 40Z" fill="#082214"/>
</svg>
