<svg width="40" height="40" viewBox="0 0 40 40" fill="none" xmlns="http://www.w3.org/2000/svg">
<rect width="40" height="40" rx="20" fill="#C2C19F"/>
<path fill-rule="evenodd" clip-rule="evenodd" d="M20.0001 18.0002V20.0002H22.0001C22.0001 19.4698 21.7894 18.961 21.4143 18.586C21.0392 18.2109 20.5305 18.0002 20.0001 18.0002ZM20.0001 14.0001V16.0001C22.2061 16.0001 24.0001 17.7942 24.0001 20.0002H26C26 18.4089 25.3679 16.8827 24.2427 15.7575C23.1175 14.6322 21.5914 14.0001 20.0001 14.0001ZM20.0001 10V12C24.411 12 28 15.5891 28 20.0002H30C30 14.4771 25.523 10 20.0001 10ZM24.652 28.2344C24.64 28.2704 24.641 28.2654 24.652 28.2344V28.2344ZM24.1171 25.5783C23.4221 25.2043 22.7191 24.7783 21.9921 24.4813C20.5871 23.9083 20.6821 25.6023 19.6791 26.1513C19.0271 26.5083 18.1071 25.8613 17.5381 25.5033C16.5342 24.8623 15.6517 24.0487 14.9311 23.1003C14.5561 22.6133 13.7281 21.6972 13.8301 21.0142C13.9921 19.9302 15.2741 19.8762 14.9071 18.5502C14.7111 17.8402 14.3601 17.1411 14.0971 16.4571C13.7451 15.5401 13.6001 14.9531 12.5732 15.0031C11.8312 15.0391 11.3392 15.3561 10.8832 15.9511C9.64918 17.5582 9.83518 19.7252 10.6642 21.4882C11.8382 23.9833 13.8501 26.3353 15.9991 27.8554C17.4611 28.8894 19.3871 29.8284 21.1571 29.9874C22.4531 30.1044 24.266 29.4034 24.73 27.9964L24.811 27.7514L24.731 27.9934C25.139 26.7533 25.189 26.1553 24.1171 25.5783ZM24.811 27.7514C24.819 27.7254 24.819 27.7274 24.811 27.7514V27.7514Z" fill="#092315"/>
</svg>
