<svg width="60" height="60" viewBox="0 0 60 60" fill="none" xmlns="http://www.w3.org/2000/svg">
<path d="M18.4994 32.8425C18.1728 33.3335 17.999 33.9103 17.9999 34.5V35.7045L14.2154 35.706C14.0899 35.7061 13.9662 35.7354 13.854 35.7916C13.7418 35.8478 13.6442 35.9293 13.569 36.0297C13.4937 36.1301 13.4429 36.2467 13.4205 36.3701C13.3981 36.4936 13.4047 36.6206 13.4399 36.741L15.6119 43.116L15.6239 43.1505C15.7289 43.4895 16.0409 43.719 16.3949 43.719H17.9999V46.581L16.3949 46.5825C15.6151 46.585 14.855 46.3382 14.2254 45.8781C13.5958 45.418 13.1298 44.7687 12.8954 44.025L10.7204 37.6455L10.7144 37.6275L10.7084 37.6095C10.5362 37.0596 10.496 36.4768 10.5909 35.9085C10.6858 35.3401 10.9132 34.8021 11.2547 34.3379C11.5962 33.8737 12.0421 33.4965 12.5565 33.2367C13.0708 32.9769 13.6391 32.8419 14.2154 32.8425H18.4994ZM29.2499 7.8225C31.1484 7.82488 32.9684 8.58011 34.3109 9.92254C35.6533 11.265 36.4085 13.085 36.4109 14.9835C36.4085 16.882 35.6533 18.702 34.3109 20.0445C32.9684 21.3869 31.1484 22.1421 29.2499 22.1445C27.3514 22.1421 25.5314 21.3869 24.1889 20.0445C22.8465 18.702 22.0913 16.882 22.0889 14.9835C22.0909 13.0848 22.8459 11.2643 24.1884 9.92157C25.5309 8.57881 27.3511 7.82338 29.2499 7.821V7.8225ZM29.2499 10.686C28.4107 10.686 27.5898 10.9317 26.8886 11.3928C26.1874 11.8539 25.6365 12.5102 25.304 13.2808C24.9715 14.0513 24.8719 14.9024 25.0174 15.7289C25.163 16.5554 25.5474 17.3212 26.1231 17.9318C26.6989 18.5424 27.4408 18.971 28.2574 19.1648C29.0739 19.3586 29.9294 19.3091 30.7181 19.0224C31.5068 18.7356 32.1943 18.2242 32.6958 17.5513C33.1972 16.8783 33.4907 16.0733 33.5399 15.2355L33.5474 14.9835C33.5463 13.8877 33.1271 12.8336 32.3752 12.0364C31.6234 11.2391 30.5958 10.7588 29.5019 10.6935L29.2499 10.686Z" fill="#092315"/>
<path d="M42.141 35.3385C41.7611 35.3385 41.3967 35.1876 41.128 34.9189C40.8594 34.6503 40.7085 34.2859 40.7085 33.906C40.7085 31.7685 40.0305 29.7705 38.802 28.281C37.638 26.8695 36.117 26.0925 34.512 26.0925H23.988C22.386 26.0925 20.862 26.8695 19.698 28.2795C18.468 29.7705 17.793 31.767 17.793 33.906C17.793 34.2859 17.6421 34.6503 17.3734 34.9189C17.1048 35.1876 16.7404 35.3385 16.3605 35.3385C15.9806 35.3385 15.6162 35.1876 15.3475 34.9189C15.0789 34.6503 14.928 34.2859 14.928 33.906C14.928 31.104 15.837 28.4595 17.4885 26.457C18.2764 25.4863 19.2557 24.6883 20.3655 24.1125C21.4847 23.5316 22.727 23.2281 23.988 23.2275H34.512C35.7735 23.2275 37.017 23.532 38.1345 24.1125C39.219 24.6675 40.185 25.4565 41.0115 26.4585C42.663 28.4595 43.5735 31.104 43.5735 33.906C43.5735 34.2859 43.4226 34.6503 43.1539 34.9189C42.8853 35.1876 42.5209 35.3385 42.141 35.3385Z" fill="#092315"/>
<path d="M29.2379 27.759L27.7544 31.494C27.7147 31.596 27.7056 31.7074 27.7282 31.8145C27.7509 31.9216 27.8043 32.0198 27.8819 32.097L28.8659 33.081C29.0834 33.3 29.4359 33.3015 29.6564 33.0855L30.6314 32.1105C30.7086 32.033 30.7612 31.9344 30.7825 31.8271C30.8039 31.7199 30.7931 31.6087 30.7514 31.5075L29.2364 27.759H29.2379Z" fill="#092315"/>
<path d="M30.1171 28.8H28.3831C28.2736 28.7996 28.1673 28.7626 28.0812 28.6949C27.9951 28.6273 27.934 28.5328 27.9076 28.4265L27.6721 27.4875C27.6538 27.4148 27.6524 27.3389 27.6679 27.2656C27.6834 27.1923 27.7155 27.1235 27.7616 27.0645C27.8078 27.0054 27.8668 26.9577 27.9342 26.925C28.0016 26.8922 28.0756 26.8753 28.1506 26.8755H30.3541C30.4289 26.8755 30.5027 26.8926 30.5699 26.9255C30.6372 26.9583 30.696 27.006 30.742 27.0651C30.788 27.1241 30.8199 27.1928 30.8354 27.266C30.8508 27.3392 30.8493 27.4149 30.8311 27.4875L30.5971 28.4265C30.5705 28.5336 30.5088 28.6286 30.4217 28.6963C30.3347 28.764 30.2274 28.8006 30.1171 28.8Z" fill="#092315"/>
<path d="M44.6175 34.524H24.648C23.1501 34.524 21.7135 35.119 20.6541 36.178C19.5948 37.2371 18.9994 38.6736 18.999 40.1715V41.106L19.008 41.403C19.0866 42.8466 19.7148 44.2053 20.7636 45.2003C21.8124 46.1953 23.2023 46.751 24.648 46.7535H41.523C43.0207 46.7531 44.4569 46.158 45.516 45.0989C46.575 44.0399 47.1701 42.6037 47.1705 41.106V37.077C47.1705 35.667 46.0275 34.524 44.6175 34.524ZM24.648 37.524L44.169 37.5225V41.106C44.169 42.5685 42.984 43.7535 41.5215 43.7535H24.6465C23.2455 43.7535 22.0875 42.6585 22.005 41.268L21.999 41.061V40.1715C21.999 38.709 23.184 37.524 24.648 37.524Z" fill="#C2C19F"/>
</svg>
