<svg width="32" height="32" viewBox="0 0 32 32" fill="none" xmlns="http://www.w3.org/2000/svg">
<path d="M22.8358 22.3643L22.3644 22.8357C22.1041 23.096 21.682 23.0961 21.4217 22.8357L16.0005 17.4146L10.5793 22.8357C10.319 23.096 9.89688 23.096 9.63652 22.8357L9.16516 22.3643C8.90481 22.104 8.90481 21.6818 9.16509 21.4215L14.5863 16.0004L9.16512 10.5792C8.90477 10.3189 8.90479 9.89673 9.16514 9.63637L9.6365 9.16501C9.89686 8.90466 10.319 8.90464 10.5793 9.16499L16.0005 14.5861L21.4216 9.16498C21.682 8.90463 22.1041 8.90465 22.3645 9.16501L22.8358 9.63636C23.0962 9.89672 23.0962 10.3188 22.8359 10.5792L17.4147 16.0004L22.8359 21.4215C23.0962 21.6819 23.0962 22.104 22.8358 22.3643Z" fill="#092315"/>
</svg>
