<svg width="50" height="50" viewBox="0 0 50 50" fill="none" xmlns="http://www.w3.org/2000/svg">
<path d="M45.8334 10.4167V14.5833C45.8334 15.1359 45.6139 15.6658 45.2232 16.0565C44.8325 16.4472 44.3026 16.6667 43.7501 16.6667H31.2501C30.6976 16.6667 30.1676 16.4472 29.7769 16.0565C29.3862 15.6658 29.1668 15.1359 29.1668 14.5833H8.33342V25H29.1668C29.1668 24.4475 29.3862 23.9176 29.7769 23.5269C30.1676 23.1362 30.6976 22.9167 31.2501 22.9167H43.7501C44.3026 22.9167 44.8325 23.1362 45.2232 23.5269C45.6139 23.9176 45.8334 24.4475 45.8334 25V29.1667C45.8334 29.7192 45.6139 30.2491 45.2232 30.6398C44.8325 31.0305 44.3026 31.25 43.7501 31.25H31.2501C30.6976 31.25 30.1676 31.0305 29.7769 30.6398C29.3862 30.2491 29.1668 29.7192 29.1668 29.1667H8.33342V39.5833H29.1668C29.1668 39.0308 29.3862 38.5009 29.7769 38.1102C30.1676 37.7195 30.6976 37.5 31.2501 37.5H43.7501C44.3026 37.5 44.8325 37.7195 45.2232 38.1102C45.6139 38.5009 45.8334 39.0308 45.8334 39.5833V43.75C45.8334 44.3025 45.6139 44.8324 45.2232 45.2231C44.8325 45.6138 44.3026 45.8333 43.7501 45.8333H31.2501C30.6976 45.8333 30.1676 45.6138 29.7769 45.2231C29.3862 44.8324 29.1668 44.3025 29.1668 43.75H6.25008C5.69755 43.75 5.16764 43.5305 4.77694 43.1398C4.38624 42.7491 4.16675 42.2192 4.16675 41.6667V6.24999C4.16675 5.69746 4.38624 5.16755 4.77694 4.77685C5.16764 4.38615 5.69755 4.16666 6.25008 4.16666C6.80262 4.16666 7.33252 4.38615 7.72322 4.77685C8.11392 5.16755 8.33342 5.69746 8.33342 6.24999V10.4167H29.1668C29.1668 9.86412 29.3862 9.33422 29.7769 8.94352C30.1676 8.55282 30.6976 8.33332 31.2501 8.33332H43.7501C44.3026 8.33332 44.8325 8.55282 45.2232 8.94352C45.6139 9.33422 45.8334 9.86412 45.8334 10.4167Z" fill="#092315"/>
</svg>
